<svg xmlns="http://www.w3.org/2000/svg" version="1.1" viewBox="0 0 2000 1992" width="501" height="498">
<path transform="translate(723,349)" d="m0 0h16l11 4 9 6 13 12 12 12 7 8 11 12 9 10 11 11 7 8 9 9 7 8 11 12 14 15 12 13 11 12 7 8 16 17 9 10 11 12 7 8 14 15 9 11 7 7 7 8 11 12 7 8 12 12 3 1h62l28 1 11 1h11l4-3h2l2-4 9-10 9-11 13-15 11-14 10-11 11-14 12-14 8-10 13-16 13-17 9-10 11-14 11-13 11-14 10-12 10-13 13-16 8-7 10-5 4-1h8l9 3 6 4 5 4 6 10 2 5v21l-9 62-18 126-6 53-6 43v8l2 4 14 11 10 9 12 11 12 13 11 14 10 13 11 18 11 21 8 19 13 35 11 27 5 9 8 10 6 6v2l4 2 16 16 8 7 8 8 8 7 14 13 11 9 10 9 11 9 14 13 11 9 12 11 11 9 17 14 16 15 8 7 4 5-1 3h-36l-31-1h-25l-5 5v7l7 13 13 16 11 12 7 8 9 10 13 15 4 6 1 5-4 8-9 10-10 10-13 10-14 9-27 14-20 8-15 5-31 7-18 3-34 3h-27l-38-3-36-6-36-8-50-13-20-4-27-3h-15l-17 2-17 4-16 6-11 6-13 9-11 9-8 8-10 13-9 15-8 18-6 19-3 16-1 9v38l3 19 5 19 6 15 8 16 8 13 9 12 9 9 15 10 13 8 26 12 18 6 22 4 15 2 15 1h24l17-1 30-5 44-12 5-1h11l6 5 5 8 1 9-5 13-13 16-4 2v2l-8 7-14 11-26 17-18 11-16 8-27 12-15 6-43 13-33 7-37 6-27 3-29 2h-66l-35-3-28-4-36-7-36-9-36-12-29-12-23-10-19-10-21-12-16-10-22-14-28-21-26-22-8-7-31-31-7-8-9-10-11-13-8-12-10-14-13-20-12-19-12-22-13-28-10-26-13-40-7-28-7-40-2-18-2-29v-47l2-29 4-30 5-28 7-28 14-41 6-15 9-20 8-16 11-21 24-36 10-14 7-9 8-10 9-10 12-13 9-10 20-20 2-5 5-33 5-41 6-39 11-78 12-82 3-26 6-41 9-65 5-21 6-12 7-8 9-6zm34 155-3 4-3 16-5 40-3 23v14l6-4 7-6 11-4 4-1h20l27 9 14 7 11 7 11 9 13 12 9 11 6 9 8 24v12l-6 19v2l17-3 19-6 6-4-1-5-6-8-11-11-7-8-13-13-9-11-8-8-9-11-7-7-7-8-9-11-10-11-8-10-9-10-9-11-11-12-7-8-12-13-9-11-5-3z" fill="#04C971"/>
<path transform="translate(984,1008)" d="m0 0h35l26 3 17 3 23 6 40 13 43 15 37 13 28 10 103 37 48 17 28 10 24 9 29 10 27 10 29 10 50 18 52 19 6 2-3 6-9 10-10 10-13 10-14 9-27 14-20 8-15 5-31 7-18 3-34 3h-27l-38-3-36-6-36-8-50-13-20-4-27-3h-15l-17 2-17 4-16 6-11 6-13 9-11 9-8 8-10 13-9 15-8 18-6 19-3 16-1 9v38l3 19 5 19 6 15 8 16 8 13 9 12 8 8v1l-7 1h-11l-24-5-30-10-22-9-38-20-24-16-13-10-14-12-8-7-16-15-9-10-12-13-13-18-10-15-9-15-11-21-10-24-8-24-8-37-3-26v-25l4-28 5-24 9-27 8-16 11-19 10-13 12-14 8-8 8-7 14-10 14-8 16-8 19-7 21-5z" fill="#FEFEFE"/>
<path transform="translate(771,585)" d="m0 0h20l27 9 14 7 11 7 11 9 13 12 12 14 6 12 6 19v12l-7 21 3 1-22 12-13 8-10 7-9 7-13 11-15 14-7 7-11 14-7 8-8 11-11 17-12 22-8 16-8 20-7 23-5 22-6 30-4 9-5 2-9-1-3-5 1-17 6-46 8-57 10-73 18-133 5-34 12-11 13-5z" fill="#020F10"/>
<path transform="translate(1179,866)" d="m0 0h34l16 3 17 5 17 8 17 10 11 9 13 12 9 10 12 16 9 15 10 21 7 21 2 10v6l-1 1h-9l-29-4-24-5-23-6-25-9-26-12-22-14-16-13-8-7-12-13-12-15-10-16-5-12 1-6 10-6 18-6z" fill="#020F10"/>
</svg>